<?xml version="1.0" encoding="iso-8859-1"?>
<!-- Uploaded to: SVG Repo, www.svgrepo.com, Generator: SVG Repo Mixer Tools -->
<svg height="800px" width="800px" version="1.1" id="Layer_1" xmlns="http://www.w3.org/2000/svg" xmlns:xlink="http://www.w3.org/1999/xlink" 
	 viewBox="0 0 392.533 392.533" xml:space="preserve">
<path style="fill:#FFFFFF;" d="M295.079,298.279c0-23.467-19.006-42.473-42.473-42.473h-18.554l-27.669,63.935
	c-3.814,8.727-16.226,8.727-20.04,0l-27.669-63.935h-18.554c-39.887,0-42.473,41.438-42.473,41.438v73.632h197.43V298.279z"/>
<g>
	<path style="fill:#56ACE0;" d="M252.541,277.592h-4.267l-30.901,71.37h55.855v-50.683
		C273.164,286.901,263.919,277.592,252.541,277.592z"/>
	<path style="fill:#56ACE0;" d="M140.057,277.592c-7.887,0-14.675,4.461-18.166,10.99h18.101c6.012,0,10.925,4.848,10.925,10.925
		c0,6.012-4.848,10.925-10.925,10.925H119.37V320h9.05c6.012,0,10.925,4.848,10.925,10.925c0.065,5.947-4.848,10.925-10.925,10.925
		h-9.05v7.24h55.855l-30.901-71.37h-4.267V277.592z"/>
</g>
<path style="fill:#FFC10D;" d="M196.299,99.103c-23.208,0-42.085,18.877-42.085,42.085s18.877,42.085,42.085,42.085
	s42.085-18.877,42.085-42.085S219.507,99.103,196.299,99.103z"/>
<g>
	<path style="fill:#194F82;" d="M196.299,205.123c35.232,0,63.935-28.638,63.935-63.935s-28.638-63.935-63.935-63.935
		s-63.935,28.638-63.935,63.935S161.067,205.123,196.299,205.123z M196.299,99.103c23.273,0,42.085,18.877,42.085,42.085
		c0,23.273-18.941,42.085-42.085,42.085s-42.085-18.877-42.085-42.085C154.214,117.98,173.026,99.103,196.299,99.103z"/>
	<path style="fill:#194F82;" d="M106.958,141.253c0-6.012-4.848-10.925-10.925-10.925H65.972c-6.012,0-10.925,4.848-10.925,10.925
		c0,6.012,4.848,10.925,10.925,10.925h30.125C102.044,152.113,106.958,147.265,106.958,141.253z"/>
	<path style="fill:#194F82;" d="M117.689,78.093c4.267,4.267,11.119,4.267,15.451,0c4.267-4.267,4.267-11.119,0-15.451
		l-21.269-21.269c-4.267-4.267-11.119-4.267-15.451,0c-4.267,4.267-4.267,11.119,0,15.451L117.689,78.093z"/>
	<path style="fill:#194F82;" d="M196.299,51.911c6.012,0,10.925-4.848,10.925-10.925V10.925C207.224,4.913,202.376,0,196.299,0
		c-6.077,0-10.925,4.848-10.925,10.925v30.061C185.374,47.063,190.287,51.911,196.299,51.911z"/>
	<path style="fill:#194F82;" d="M274.909,78.093l21.269-21.269c4.267-4.267,4.267-11.119,0-15.451s-11.119-4.267-15.451,0
		l-21.204,21.269c-4.267,4.267-4.267,11.119,0,15.451C263.79,82.36,270.642,82.36,274.909,78.093z"/>
	<path style="fill:#194F82;" d="M326.562,130.327h-30.061c-6.012,0-10.925,4.848-10.925,10.925c0,6.077,4.848,10.925,10.925,10.925
		h30.061c6.012,0,10.925-4.848,10.925-10.925C337.487,135.24,332.638,130.327,326.562,130.327z"/>
	<path style="fill:#194F82;" d="M252.541,233.956h-25.729c-4.331,0-8.275,2.521-10.02,6.594l-20.493,47.321l-20.493-47.386
		c-1.681-4.008-5.624-6.594-9.956-6.594h-25.729c-35.556,0-64.259,28.832-64.259,64.323v83.394c0,6.012,4.848,10.925,10.925,10.925
		h219.281c6.012,0,10.925-4.848,10.925-10.925v-83.394C316.865,262.788,288.032,233.956,252.541,233.956z M294.949,370.812H97.519
		V297.18c0,0,2.651-41.438,42.473-41.438h18.554l27.669,63.935c3.814,8.727,16.226,8.727,20.04,0l27.669-63.935h18.554
		c23.467,0,42.473,19.006,42.473,42.473L294.949,370.812L294.949,370.812z"/>
</g>
</svg>